<mxfile host="65bd71144e">
    <diagram id="lO6A6E8_NUFHUicmlH_u" name="第 1 页">
        <mxGraphModel dx="775" dy="647" grid="1" gridSize="10" guides="1" tooltips="1" connect="1" arrows="1" fold="1" page="1" pageScale="1" pageWidth="1169" pageHeight="827" math="0" shadow="0">
            <root>
                <mxCell id="0"/>
                <mxCell id="1" parent="0"/>
                <mxCell id="2" value="" style="rounded=0;whiteSpace=wrap;html=1;fillColor=none;" vertex="1" parent="1">
                    <mxGeometry x="70" y="220" width="640" height="290" as="geometry"/>
                </mxCell>
                <mxCell id="3" value="输入参数解析" style="rounded=1;whiteSpace=wrap;html=1;fillColor=none;" vertex="1" parent="1">
                    <mxGeometry x="110" y="250" width="120" height="60" as="geometry"/>
                </mxCell>
                <mxCell id="5" value="数据库连接" style="rounded=1;whiteSpace=wrap;html=1;fillColor=none;" vertex="1" parent="1">
                    <mxGeometry x="250" y="250" width="120" height="60" as="geometry"/>
                </mxCell>
                <mxCell id="6" value="模板加载" style="rounded=1;whiteSpace=wrap;html=1;fillColor=none;" vertex="1" parent="1">
                    <mxGeometry x="390" y="250" width="120" height="60" as="geometry"/>
                </mxCell>
                <mxCell id="7" value="表结构解析加载" style="rounded=1;whiteSpace=wrap;html=1;fillColor=none;" vertex="1" parent="1">
                    <mxGeometry x="530" y="250" width="120" height="60" as="geometry"/>
                </mxCell>
                <mxCell id="8" value="生成控制器" style="rounded=1;whiteSpace=wrap;html=1;fillColor=none;" vertex="1" parent="1">
                    <mxGeometry x="250" y="340" width="120" height="60" as="geometry"/>
                </mxCell>
                <mxCell id="9" value="模板渲染" style="rounded=1;whiteSpace=wrap;html=1;fillColor=none;" vertex="1" parent="1">
                    <mxGeometry x="390" y="340" width="120" height="60" as="geometry"/>
                </mxCell>
                <mxCell id="10" value="输出器" style="rounded=1;whiteSpace=wrap;html=1;fillColor=none;" vertex="1" parent="1">
                    <mxGeometry x="530" y="340" width="120" height="60" as="geometry"/>
                </mxCell>
                <mxCell id="11" value="假数据生成器" style="rounded=1;whiteSpace=wrap;html=1;fillColor=none;" vertex="1" parent="1">
                    <mxGeometry x="110" y="340" width="120" height="60" as="geometry"/>
                </mxCell>
            </root>
        </mxGraphModel>
    </diagram>
</mxfile>